<?xml version="1.0" standalone="no"?>
<!DOCTYPE svg PUBLIC "-//W3C//DTD SVG 20010904//EN"
 "http://www.w3.org/TR/2001/REC-SVG-20010904/DTD/svg10.dtd">
<svg version="1.0" xmlns="http://www.w3.org/2000/svg"
 width="96.000000pt" height="96.000000pt" viewBox="0 0 96.000000 96.000000"
 preserveAspectRatio="xMidYMid meet">

<g transform="translate(0.000000,96.000000) scale(0.100000,-0.100000)"
fill="#000000" stroke="none">
<path d="M613 899 c-11 -11 -230 -86 -377 -129 -59 -18 -81 -29 -88 -46 -11
-23 14 -220 47 -384 7 -36 16 -94 20 -130 9 -86 22 -127 48 -145 35 -24 145
-19 235 11 89 30 295 128 313 150 9 11 10 44 5 127 -3 62 -11 187 -16 279 -6
92 -15 179 -20 193 -9 25 -10 25 -46 10 -37 -15 -81 -5 -68 16 3 6 3 21 0 35
-7 25 -34 32 -53 13z m-18 -49 c3 -5 13 -10 21 -10 15 0 50 -28 43 -34 -2 -2
-68 -33 -145 -69 -131 -61 -249 -107 -274 -107 -5 0 -16 16 -24 35 -9 19 -25
39 -38 44 l-23 9 25 11 c14 6 77 26 140 45 63 20 147 46 185 60 83 29 82 29
90 16z m169 -46 c10 -25 7 -84 -4 -84 -5 0 -10 10 -10 23 0 12 -4 28 -9 36 -7
11 -13 11 -32 -3 -25 -17 -59 -22 -59 -7 0 7 84 50 101 51 4 0 10 -7 13 -16z
m-122 -61 c15 -13 23 -14 44 -5 32 15 31 16 38 -12 4 -15 14 -26 29 -28 21 -3
22 -7 29 -157 7 -147 7 -156 -12 -173 -13 -13 -20 -32 -20 -58 0 -27 -4 -40
-14 -40 -27 0 -65 -40 -68 -72 -3 -31 -8 -34 -110 -75 -60 -24 -130 -47 -157
-50 l-50 -6 -10 39 c-6 22 -26 134 -45 249 -20 116 -38 219 -41 231 -6 19 1
24 62 43 37 12 118 46 178 76 61 29 114 54 119 54 5 1 18 -6 28 -16z m-442
-96 c0 -20 -25 1 -28 24 -2 23 -2 23 13 5 8 -11 15 -24 15 -29z m598 -353 c-2
-39 -8 -59 -18 -64 -8 -4 -29 -15 -47 -24 -21 -11 -34 -13 -38 -6 -10 16 13
39 49 48 28 8 31 13 32 48 1 51 2 54 14 54 7 0 10 -22 8 -56z"/>
<path d="M648 544 c-12 -11 -10 -134 2 -134 6 0 10 11 10 24 0 34 18 42 26 11
3 -14 10 -25 15 -25 12 0 11 31 0 49 -6 9 -4 23 6 38 9 13 12 27 8 31 -4 4
-14 -3 -22 -15 -20 -30 -31 -29 -35 3 -2 14 -6 22 -10 18z"/>
<path d="M547 499 c-16 -23 -12 -55 11 -81 21 -24 39 -22 57 6 19 29 11 72
-15 86 -27 14 -37 12 -53 -11z m53 -38 c0 -34 -9 -44 -27 -30 -13 12 -18 51
-7 62 13 13 34 -7 34 -32z"/>
<path d="M437 483 c-13 -12 -7 -75 10 -104 18 -31 41 -37 61 -17 18 18 15 94
-4 112 -16 16 -55 22 -67 9z m51 -25 c14 -14 16 -74 3 -83 -14 -8 -41 36 -41
67 0 30 17 37 38 16z"/>
<path d="M339 439 c-26 -50 20 -131 63 -108 10 5 18 16 18 24 0 18 -17 20 -22
3 -2 -6 -12 -9 -21 -5 -23 9 -24 87 -2 87 8 0 15 5 15 10 0 19 -39 10 -51 -11z"/>
</g>
</svg>
